# xmcd
#
# Track frame offsets:
#	150
#	8010
#	20462
#	32037
#	42130
#	52530
#	64125
#	73677
#
# Disc length: 1139 seconds
#
# Revision: 0
# Processed by: cddbd v1.5.2PL0 Copyright (c) Steve Scherf et al.
# Submitted via: EasyCDDAExtractor 12.0.0.1
#
DISCID=59047108
DTITLE=France Gall - N'écoute pas les idoles
DYEAR=1995
DGENRE=Chanson
TTITLE0=N'écoute pas les idoles
TTITLE1=Les rubans et la fleur
TTITLE2=J'entends cette musique
TTITLE3=Ca va je t'aime
TTITLE4=Ne sois pas si bête
TTITLE5=Ne dis pas au copains
TTITLE6=Si j'étais un garçon
TTITLE7=Pense à moi
EXTD=
EXTT0=
EXTT1=
EXTT2=
EXTT3=
EXTT4=
EXTT5=
EXTT6=
EXTT7=
PLAYORDER=
